<svg width="440" height="340" xmlns="http://www.w3.org/2000/svg">
<path stroke-width="1.0" stroke="black" d="M 270 97 270 97"/>
<path stroke-width="1.0" stroke="black" d="M 127 39 127 39"/>
<path stroke-width="1.0" stroke="black" d="M 20 20 20 20"/>
<path stroke-width="1.0" stroke="black" d="M 20 20 127 39"/>
<path stroke-width="1.0" stroke="black" d="M 127 39 127 39"/>
<path stroke-width="1.0" stroke="black" d="M 127 39 127 39"/>
<path stroke-width="1.0" stroke="black" d="M 127 39 127 39"/>
<path stroke-width="1.0" stroke="black" d="M 127 39 127 39"/>
<path stroke-width="1.0" stroke="black" d="M 127 39 127 39"/>
<path stroke-width="1.0" stroke="black" d="M 127 39 127 39"/>
<path stroke-width="1.0" stroke="black" d="M 127 39 127 39"/>
<path stroke-width="1.0" stroke="black" d="M 127 39 127 39"/>
<path stroke-width="1.0" stroke="black" d="M 127 39 127 39"/>
<path stroke-width="1.0" stroke="black" d="M 127 39 270 97"/>
<path stroke-width="1.0" stroke="black" d="M 127 39 270 97"/>
<path stroke-width="1.0" stroke="black" d="M 127 39 281 83"/>
<path stroke-width="1.0" stroke="black" d="M 127 39 281 83"/>
<path stroke-width="1.0" stroke="black" d="M 127 39 281 83"/>
<path stroke-width="1.0" stroke="black" d="M 127 39 281 83"/>
<path stroke-width="1.0" stroke="black" d="M 127 39 281 83"/>
<path stroke-width="1.0" stroke="black" d="M 127 39 281 83"/>
<path stroke-width="1.0" stroke="black" d="M 127 39 420 266"/>
<path stroke-width="1.0" stroke="black" d="M 127 39 420 266"/>
<path stroke-width="1.0" stroke="black" d="M 127 39 420 266"/>
<path stroke-width="1.0" stroke="black" d="M 127 39 127 39"/>
<path stroke-width="1.0" stroke="black" d="M 127 39 420 266"/>
<path stroke-width="1.0" stroke="black" d="M 127 39 127 39"/>
<path stroke-width="1.0" stroke="black" d="M 127 39 127 39"/>
<path stroke-width="1.0" stroke="black" d="M 420 266 420 266"/>
<path stroke-width="1.0" stroke="black" d="M 420 266 127 39"/>
<path stroke-width="1.0" stroke="black" d="M 127 39 127 39"/>
<path stroke-width="1.0" stroke="black" d="M 127 39 127 39"/>
<path stroke-width="1.0" stroke="black" d="M 127 39 127 39"/>
<path stroke-width="1.0" stroke="black" d="M 127 39 127 39"/>
<path stroke-width="1.0" stroke="black" d="M 127 39 127 39"/>
<path stroke-width="1.0" stroke="black" d="M 127 39 127 39"/>
<path stroke-width="1.0" stroke="black" d="M 127 39 127 39"/>
<path stroke-width="1.0" stroke="black" d="M 127 39 127 39"/>
<path stroke-width="1.0" stroke="black" d="M 127 39 127 39"/>
<path stroke-width="1.0" stroke="black" d="M 127 39 127 39"/>
<path stroke-width="1.0" stroke="black" d="M 127 39 127 39"/>
<path stroke-width="1.0" stroke="black" d="M 127 39 127 39"/>
<path stroke-width="1.0" stroke="black" d="M 127 39 127 39"/>
<path stroke-width="1.0" stroke="black" d="M 127 39 127 39"/>
<path stroke-width="1.0" stroke="black" d="M 127 39 127 39"/>
<path stroke-width="1.0" stroke="black" d="M 127 39 127 39"/>
<path stroke-width="1.0" stroke="black" d="M 127 39 127 39"/>
<path stroke-width="1.0" stroke="black" d="M 20 20 20 20"/>
<path stroke-width="1.0" stroke="black" d="M 20 20 127 39"/>
<path stroke-width="1.0" stroke="black" d="M 127 39 127 39"/>
<path stroke-width="1.0" stroke="black" d="M 127 39 127 39"/>
<path stroke-width="1.0" stroke="black" d="M 127 39 127 39"/>
<path stroke-width="1.0" stroke="black" d="M 127 39 420 266"/>
<path stroke-width="1.0" stroke="black" d="M 127 39 420 266"/>
<path stroke-width="1.0" stroke="black" d="M 127 39 420 266"/>
<path stroke-width="1.0" stroke="black" d="M 127 39 127 39"/>
<path stroke-width="1.0" stroke="black" d="M 127 39 127 39"/>
<path stroke-width="1.0" stroke="black" d="M 127 39 127 39"/>
<path stroke-width="1.0" stroke="black" d="M 127 39 127 39"/>
<path stroke-width="1.0" stroke="black" d="M 127 39 127 39"/>
<path stroke-width="1.0" stroke="black" d="M 127 39 127 39"/>
<path stroke-width="1.0" stroke="black" d="M 127 39 127 39"/>
<path stroke-width="1.0" stroke="black" d="M 127 39 20 20"/>
<path stroke-width="1.0" stroke="black" d="M 127 39 127 39"/>
<path stroke-width="1.0" stroke="black" d="M 127 39 127 39"/>
<path stroke-width="1.0" stroke="black" d="M 127 39 127 39"/>
<path stroke-width="1.0" stroke="black" d="M 127 39 127 39"/>
<path stroke-width="1.0" stroke="black" d="M 127 39 127 39"/>
<path stroke-width="1.0" stroke="black" d="M 127 39 127 39"/>
<path stroke-width="1.0" stroke="black" d="M 127 39 127 39"/>
<path stroke-width="1.0" stroke="black" d="M 127 39 20 20"/>
<path stroke-width="1.0" stroke="black" d="M 127 39 127 39"/>
<path stroke-width="1.0" stroke="black" d="M 127 39 127 39"/>
<path stroke-width="1.0" stroke="black" d="M 127 39 127 39"/>
<path stroke-width="1.0" stroke="black" d="M 127 39 127 39"/>
<path stroke-width="1.0" stroke="black" d="M 127 39 127 39"/>
<path stroke-width="1.0" stroke="black" d="M 127 39 127 39"/>
<path stroke-width="1.0" stroke="black" d="M 127 39 127 39"/>
<path stroke-width="1.0" stroke="black" d="M 127 39 127 39"/>
<path stroke-width="1.0" stroke="black" d="M 127 39 127 39"/>
<path stroke-width="1.0" stroke="black" d="M 127 39 127 39"/>
<path stroke-width="1.0" stroke="black" d="M 127 39 127 39"/>
<path stroke-width="1.0" stroke="black" d="M 127 39 420 266"/>
<path stroke-width="1.0" stroke="black" d="M 127 39 420 266"/>
<path stroke-width="1.0" stroke="black" d="M 127 39 420 266"/>
<path stroke-width="1.0" stroke="black" d="M 127 39 420 266"/>
<path stroke-width="1.0" stroke="black" d="M 127 39 420 266"/>
<path stroke-width="1.0" stroke="black" d="M 127 39 420 266"/>
<path stroke-width="1.0" stroke="black" d="M 127 39 420 266"/>
<path stroke-width="1.0" stroke="black" d="M 127 39 420 266"/>
<path stroke-width="1.0" stroke="black" d="M 127 39 420 266"/>
<path stroke-width="1.0" stroke="black" d="M 127 39 420 266"/>
<path stroke-width="1.0" stroke="black" d="M 127 39 420 266"/>
<path stroke-width="1.0" stroke="black" d="M 420 266 420 266"/>
<path stroke-width="1.0" stroke="black" d="M 127 39 420 266"/>
<path stroke-width="1.0" stroke="black" d="M 127 39 420 266"/>
<path stroke-width="1.0" stroke="black" d="M 127 39 420 266"/>
<path stroke-width="1.0" stroke="black" d="M 127 39 420 266"/>
<path stroke-width="1.0" stroke="black" d="M 127 39 420 266"/>
<path stroke-width="1.0" stroke="black" d="M 127 39 420 266"/>
<path stroke-width="1.0" stroke="black" d="M 127 39 127 39"/>
<path stroke-width="1.0" stroke="black" d="M 127 39 127 39"/>
<path stroke-width="1.0" stroke="black" d="M 127 39 127 39"/>
<path stroke-width="1.0" stroke="black" d="M 127 39 127 39"/>
<path stroke-width="1.0" stroke="black" d="M 127 39 127 39"/>
<path stroke-width="1.0" stroke="black" d="M 127 39 127 39"/>
<path stroke-width="1.0" stroke="black" d="M 127 39 420 266"/>
<path stroke-width="1.0" stroke="black" d="M 420 266 420 266"/>
<path stroke-width="1.0" stroke="black" d="M 420 266 420 266"/>
<path stroke-width="1.0" stroke="black" d="M 420 266 420 266"/>
<path stroke-width="1.0" stroke="black" d="M 281 83 281 83"/>
<path stroke-width="1.0" stroke="black" d="M 281 83 420 266"/>
<path stroke-width="1.0" stroke="black" d="M 281 83 127 39"/>
<path stroke-width="1.0" stroke="black" d="M 420 266 420 266"/>
<path stroke-width="1.0" stroke="black" d="M 420 266 127 39"/>
<path stroke-width="1.0" stroke="black" d="M 420 266 420 266"/>
<path stroke-width="1.0" stroke="black" d="M 420 266 127 39"/>
<path stroke-width="1.0" stroke="black" d="M 420 266 420 266"/>
<path stroke-width="1.0" stroke="black" d="M 420 266 127 39"/>
<path stroke-width="1.0" stroke="black" d="M 420 266 420 266"/>
<path stroke-width="1.0" stroke="black" d="M 420 266 127 39"/>
<path stroke-width="1.0" stroke="black" d="M 420 266 420 266"/>
<path stroke-width="1.0" stroke="black" d="M 420 266 127 39"/>
<path stroke-width="1.0" stroke="black" d="M 420 266 420 266"/>
<path stroke-width="1.0" stroke="black" d="M 420 266 127 39"/>
<path stroke-width="1.0" stroke="black" d="M 420 266 420 266"/>
<path stroke-width="1.0" stroke="black" d="M 420 266 127 39"/>
<path stroke-width="1.0" stroke="black" d="M 420 266 420 266"/>
<path stroke-width="1.0" stroke="black" d="M 420 266 127 39"/>
<path stroke-width="1.0" stroke="black" d="M 420 266 420 266"/>
<path stroke-width="1.0" stroke="black" d="M 420 266 127 39"/>
<path stroke-width="1.0" stroke="black" d="M 420 266 420 266"/>
<path stroke-width="1.0" stroke="black" d="M 420 266 127 39"/>
<path stroke-width="1.0" stroke="black" d="M 281 83 281 83"/>
<path stroke-width="1.0" stroke="black" d="M 281 83 281 83"/>
<path stroke-width="1.0" stroke="black" d="M 281 83 281 83"/>
<path stroke-width="1.0" stroke="black" d="M 281 83 281 83"/>
<path stroke-width="1.0" stroke="black" d="M 270 97 281 83"/>
<path stroke-width="1.0" stroke="black" d="M 270 97 420 266"/>
<path stroke-width="1.0" stroke="black" d="M 270 97 127 39"/>
<path stroke-width="1.0" stroke="black" d="M 270 97 270 97"/>
<path stroke-width="1.0" stroke="black" d="M 270 97 281 83"/>
<path stroke-width="1.0" stroke="black" d="M 270 97 420 266"/>
<path stroke-width="1.0" stroke="black" d="M 270 97 127 39"/>
<path stroke-width="1.0" stroke="black" d="M 281 83 281 83"/>
<path stroke-width="1.0" stroke="black" d="M 281 83 420 266"/>
<path stroke-width="1.0" stroke="black" d="M 281 83 127 39"/>
<path stroke-width="1.0" stroke="black" d="M 281 83 281 83"/>
<path stroke-width="1.0" stroke="black" d="M 420 266 420 266"/>
<path stroke-width="1.0" stroke="black" d="M 281 83 420 266"/>
<path stroke-width="1.0" stroke="black" d="M 281 83 281 83"/>
<path stroke-width="1.0" stroke="black" d="M 281 83 420 266"/>
<path stroke-width="1.0" stroke="black" d="M 281 83 127 39"/>
<path stroke-width="1.0" stroke="black" d="M 281 83 281 83"/>
<path stroke-width="1.0" stroke="black" d="M 281 83 420 266"/>
<path stroke-width="1.0" stroke="black" d="M 281 83 127 39"/>
<path stroke-width="1.0" stroke="black" d="M 281 83 281 83"/>
<path stroke-width="1.0" stroke="black" d="M 281 83 420 266"/>
<path stroke-width="1.0" stroke="black" d="M 281 83 127 39"/>
<path stroke-width="1.0" stroke="black" d="M 281 83 270 97"/>
<path stroke-width="1.0" stroke="black" d="M 281 83 270 97"/>
<path stroke-width="1.0" stroke="black" d="M 281 83 127 39"/>
<path stroke-width="1.0" stroke="black" d="M 127 39 127 39"/>
<path stroke-width="1.0" stroke="black" d="M 420 266 127 39"/>
<path stroke-width="1.0" stroke="black" d="M 420 266 127 39"/>
<path stroke-width="1.0" stroke="black" d="M 420 266 281 83"/>
<path stroke-width="1.0" stroke="black" d="M 420 266 281 83"/>
<path stroke-width="1.0" stroke="black" d="M 420 266 281 83"/>
<path stroke-width="1.0" stroke="black" d="M 420 266 281 83"/>
<path stroke-width="1.0" stroke="black" d="M 420 266 420 266"/>
<path stroke-width="1.0" stroke="black" d="M 420 266 420 266"/>
<path stroke-width="1.0" stroke="black" d="M 420 266 420 266"/>
<path stroke-width="1.0" stroke="black" d="M 420 266 420 266"/>
<path stroke-width="1.0" stroke="black" d="M 420 266 420 266"/>
<path stroke-width="1.0" stroke="black" d="M 420 266 420 266"/>
<path stroke-width="1.0" stroke="black" d="M 420 266 420 266"/>
<path stroke-width="1.0" stroke="black" d="M 420 266 420 266"/>
<path stroke-width="1.0" stroke="black" d="M 420 266 420 266"/>
<path stroke-width="1.0" stroke="black" d="M 420 266 420 266"/>
<path stroke-width="1.0" stroke="black" d="M 420 266 420 266"/>
<path stroke-width="1.0" stroke="black" d="M 420 266 420 266"/>
<path stroke-width="1.0" stroke="black" d="M 420 266 420 266"/>
<path stroke-width="1.0" stroke="black" d="M 420 266 420 266"/>
<path stroke-width="1.0" stroke="black" d="M 420 266 420 266"/>
<path stroke-width="1.0" stroke="black" d="M 420 266 420 266"/>
<path stroke-width="1.0" stroke="black" d="M 420 266 420 266"/>
<path stroke-width="1.0" stroke="black" d="M 420 266 420 266"/>
<path stroke-width="1.0" stroke="black" d="M 420 266 420 266"/>
<path stroke-width="1.0" stroke="black" d="M 420 266 281 83"/>
<path stroke-width="1.0" stroke="black" d="M 420 266 281 83"/>
<path stroke-width="1.0" stroke="black" d="M 420 266 270 97"/>
<path stroke-width="1.0" stroke="black" d="M 420 266 270 97"/>
<path stroke-width="1.0" stroke="black" d="M 420 266 420 266"/>
<path stroke-width="1.0" stroke="black" d="M 420 266 127 39"/>
<path stroke-width="1.0" stroke="black" d="M 420 266 420 266"/>
<path stroke-width="1.0" stroke="black" d="M 420 266 127 39"/>
<path stroke-width="1.0" stroke="black" d="M 420 266 420 266"/>
<path stroke-width="1.0" stroke="black" d="M 420 266 127 39"/>
<path stroke-width="1.0" stroke="black" d="M 420 266 420 266"/>
<path stroke-width="1.0" stroke="black" d="M 420 266 127 39"/>
<path stroke-width="1.0" stroke="black" d="M 420 266 420 266"/>
<path stroke-width="1.0" stroke="black" d="M 420 266 127 39"/>
<path stroke-width="1.0" stroke="black" d="M 420 266 420 266"/>
<path stroke-width="1.0" stroke="black" d="M 420 266 420 266"/>
<path stroke-width="1.0" stroke="black" d="M 420 266 127 39"/>
<path stroke-width="1.0" stroke="black" d="M 420 266 127 39"/>
<path stroke-width="1.0" stroke="black" d="M 420 266 420 266"/>
<path stroke-width="1.0" stroke="black" d="M 420 266 127 39"/>
<path stroke-width="1.0" stroke="black" d="M 420 266 420 266"/>
<path stroke-width="1.0" stroke="black" d="M 420 266 127 39"/>
<path stroke-width="1.0" stroke="black" d="M 420 266 420 266"/>
<path stroke-width="1.0" stroke="black" d="M 420 266 127 39"/>
<path stroke-width="1.0" stroke="black" d="M 420 266 420 266"/>
<path stroke-width="1.0" stroke="black" d="M 420 266 127 39"/>
<path stroke-width="1.0" stroke="black" d="M 420 266 420 266"/>
<path stroke-width="1.0" stroke="black" d="M 420 266 127 39"/>
<path stroke-width="1.0" stroke="black" d="M 420 266 420 266"/>
<path stroke-width="1.0" stroke="black" d="M 127 39 127 39"/>
<circle cx="270" cy="97" r="10.588235294117647" style="fill:blue;stroke:black;stroke-width:1.0"/>
<circle cx="270" cy="97" r="10.588235294117647" style="fill:red;stroke:black;stroke-width:1.0"/>
<circle cx="281" cy="83" r="10.441176470588236" style="fill:green;stroke:black;stroke-width:1.0"/>
<circle cx="281" cy="83" r="10.441176470588236" style="fill:orange;stroke:black;stroke-width:1.0"/>
<circle cx="281" cy="83" r="10.441176470588236" style="fill:purple;stroke:black;stroke-width:1.0"/>
<circle cx="281" cy="83" r="10.441176470588236" style="fill:yellow;stroke:black;stroke-width:1.0"/>
<circle cx="281" cy="83" r="10.441176470588236" style="fill:fuchsia;stroke:black;stroke-width:1.0"/>
<circle cx="281" cy="83" r="11.323529411764707" style="fill:olive;stroke:black;stroke-width:1.0"/>
<circle cx="420" cy="266" r="10.294117647058824" style="fill:aqua;stroke:black;stroke-width:1.0"/>
<circle cx="420" cy="266" r="10.294117647058824" style="fill:brown;stroke:black;stroke-width:1.0"/>
<circle cx="420" cy="266" r="10.294117647058824" style="fill:blue;stroke:black;stroke-width:1.0"/>
<circle cx="420" cy="266" r="10.294117647058824" style="fill:red;stroke:black;stroke-width:1.0"/>
<circle cx="420" cy="266" r="10.294117647058824" style="fill:green;stroke:black;stroke-width:1.0"/>
<circle cx="420" cy="266" r="10.294117647058824" style="fill:orange;stroke:black;stroke-width:1.0"/>
<circle cx="420" cy="266" r="10.294117647058824" style="fill:purple;stroke:black;stroke-width:1.0"/>
<circle cx="420" cy="266" r="10.294117647058824" style="fill:yellow;stroke:black;stroke-width:1.0"/>
<circle cx="420" cy="266" r="10.294117647058824" style="fill:fuchsia;stroke:black;stroke-width:1.0"/>
<circle cx="420" cy="266" r="10.294117647058824" style="fill:olive;stroke:black;stroke-width:1.0"/>
<circle cx="420" cy="266" r="10.294117647058824" style="fill:aqua;stroke:black;stroke-width:1.0"/>
<circle cx="420" cy="266" r="10.294117647058824" style="fill:brown;stroke:black;stroke-width:1.0"/>
<circle cx="420" cy="266" r="10.294117647058824" style="fill:blue;stroke:black;stroke-width:1.0"/>
<circle cx="420" cy="266" r="10.294117647058824" style="fill:red;stroke:black;stroke-width:1.0"/>
<circle cx="420" cy="266" r="10.294117647058824" style="fill:green;stroke:black;stroke-width:1.0"/>
<circle cx="420" cy="266" r="10.294117647058824" style="fill:orange;stroke:black;stroke-width:1.0"/>
<circle cx="420" cy="266" r="10.294117647058824" style="fill:purple;stroke:black;stroke-width:1.0"/>
<circle cx="420" cy="266" r="10.294117647058824" style="fill:yellow;stroke:black;stroke-width:1.0"/>
<circle cx="420" cy="266" r="10.294117647058824" style="fill:fuchsia;stroke:black;stroke-width:1.0"/>
<circle cx="420" cy="266" r="10.294117647058824" style="fill:olive;stroke:black;stroke-width:1.0"/>
<circle cx="420" cy="266" r="10.294117647058824" style="fill:aqua;stroke:black;stroke-width:1.0"/>
<circle cx="420" cy="266" r="10.294117647058824" style="fill:brown;stroke:black;stroke-width:1.0"/>
<circle cx="420" cy="266" r="10.294117647058824" style="fill:blue;stroke:black;stroke-width:1.0"/>
<circle cx="420" cy="266" r="10.294117647058824" style="fill:red;stroke:black;stroke-width:1.0"/>
<circle cx="420" cy="266" r="14.852941176470587" style="fill:green;stroke:black;stroke-width:1.0"/>
<circle cx="127" cy="39" r="10.147058823529411" style="fill:orange;stroke:black;stroke-width:1.0"/>
<circle cx="127" cy="39" r="10.147058823529411" style="fill:purple;stroke:black;stroke-width:1.0"/>
<circle cx="127" cy="39" r="10.147058823529411" style="fill:yellow;stroke:black;stroke-width:1.0"/>
<circle cx="127" cy="39" r="10.147058823529411" style="fill:fuchsia;stroke:black;stroke-width:1.0"/>
<circle cx="127" cy="39" r="10.147058823529411" style="fill:olive;stroke:black;stroke-width:1.0"/>
<circle cx="127" cy="39" r="10.147058823529411" style="fill:aqua;stroke:black;stroke-width:1.0"/>
<circle cx="127" cy="39" r="10.147058823529411" style="fill:brown;stroke:black;stroke-width:1.0"/>
<circle cx="127" cy="39" r="10.147058823529411" style="fill:blue;stroke:black;stroke-width:1.0"/>
<circle cx="127" cy="39" r="10.147058823529411" style="fill:red;stroke:black;stroke-width:1.0"/>
<circle cx="127" cy="39" r="10.147058823529411" style="fill:green;stroke:black;stroke-width:1.0"/>
<circle cx="127" cy="39" r="10.147058823529411" style="fill:orange;stroke:black;stroke-width:1.0"/>
<circle cx="127" cy="39" r="10.147058823529411" style="fill:purple;stroke:black;stroke-width:1.0"/>
<circle cx="127" cy="39" r="10.147058823529411" style="fill:yellow;stroke:black;stroke-width:1.0"/>
<circle cx="127" cy="39" r="10.147058823529411" style="fill:fuchsia;stroke:black;stroke-width:1.0"/>
<circle cx="127" cy="39" r="10.147058823529411" style="fill:olive;stroke:black;stroke-width:1.0"/>
<circle cx="127" cy="39" r="10.147058823529411" style="fill:aqua;stroke:black;stroke-width:1.0"/>
<circle cx="127" cy="39" r="10.147058823529411" style="fill:brown;stroke:black;stroke-width:1.0"/>
<circle cx="20" cy="20" r="10.294117647058824" style="fill:blue;stroke:black;stroke-width:1.0"/>
<circle cx="127" cy="39" r="10.147058823529411" style="fill:red;stroke:black;stroke-width:1.0"/>
<circle cx="127" cy="39" r="10.147058823529411" style="fill:green;stroke:black;stroke-width:1.0"/>
<circle cx="127" cy="39" r="10.147058823529411" style="fill:orange;stroke:black;stroke-width:1.0"/>
<circle cx="127" cy="39" r="10.147058823529411" style="fill:purple;stroke:black;stroke-width:1.0"/>
<circle cx="127" cy="39" r="10.147058823529411" style="fill:yellow;stroke:black;stroke-width:1.0"/>
<circle cx="127" cy="39" r="10.147058823529411" style="fill:fuchsia;stroke:black;stroke-width:1.0"/>
<circle cx="127" cy="39" r="10.147058823529411" style="fill:olive;stroke:black;stroke-width:1.0"/>
<circle cx="20" cy="20" r="10.294117647058824" style="fill:aqua;stroke:black;stroke-width:1.0"/>
<circle cx="127" cy="39" r="10.147058823529411" style="fill:brown;stroke:black;stroke-width:1.0"/>
<circle cx="127" cy="39" r="10.147058823529411" style="fill:blue;stroke:black;stroke-width:1.0"/>
<circle cx="127" cy="39" r="10.147058823529411" style="fill:red;stroke:black;stroke-width:1.0"/>
<circle cx="127" cy="39" r="10.147058823529411" style="fill:green;stroke:black;stroke-width:1.0"/>
<circle cx="127" cy="39" r="10.147058823529411" style="fill:orange;stroke:black;stroke-width:1.0"/>
<circle cx="127" cy="39" r="10.147058823529411" style="fill:purple;stroke:black;stroke-width:1.0"/>
<circle cx="127" cy="39" r="10.147058823529411" style="fill:yellow;stroke:black;stroke-width:1.0"/>
<circle cx="127" cy="39" r="10.147058823529411" style="fill:fuchsia;stroke:black;stroke-width:1.0"/>
<circle cx="127" cy="39" r="10.147058823529411" style="fill:olive;stroke:black;stroke-width:1.0"/>
<circle cx="127" cy="39" r="20.0" style="fill:aqua;stroke:black;stroke-width:1.0"/>
<circle cx="206" cy="320" r="10.0" style="fill:brown;stroke:black;stroke-width:1.0"/>
<circle cx="143" cy="85" r="10.0" style="fill:blue;stroke:black;stroke-width:1.0"/>
</svg>
